<?xml version="1.0" encoding="UTF-8" standalone="no"?><!DOCTYPE svg PUBLIC "-//W3C//DTD SVG 1.1//EN" "http://www.w3.org/Graphics/SVG/1.1/DTD/svg11.dtd"><svg width="100%" height="100%" viewBox="0 0 1916 621" version="1.1" xmlns="http://www.w3.org/2000/svg" xmlns:xlink="http://www.w3.org/1999/xlink" xml:space="preserve" xmlns:serif="http://www.serif.com/" style="fill-rule:evenodd;clip-rule:evenodd;stroke-linejoin:round;stroke-miterlimit:2;"><g><path d="M411.602,105.41l-0,153.828l149.934,0c-0.314,36.143 -6.681,71.642 -18.518,105.37l-131.416,-0l-0,172.423c-0.807,0.604 -1.614,1.167 -2.422,1.731l-114.961,81.583l-0,-620.345l267.317,0l-0,105.41l-149.934,-0Z" style="fill-rule:nonzero;"/><path d="M267.317,0l-0,620.345l-114.962,-81.583c-0.807,-0.564 -1.614,-1.127 -2.421,-1.731l0,-172.423l-131.416,-0c-11.837,-33.728 -18.204,-69.227 -18.518,-105.37l149.934,0l0,-153.828l-149.934,-0l-0,-105.41l267.317,-0Z" style="fill-rule:nonzero;"/><path d="M438.364,619.82l0,-231.024l165.896,0l0,48.861l-108.549,0l-0,48.862l95.457,-0l0,46.929l-95.099,-0l0,86.372l-57.705,0Z" style="fill-rule:nonzero;"/><path d="M631.162,619.861l0,-231.025l162.982,0l0,48.54l-105.635,-0l-0,43.991l95.816,-0l-0,45.279l-95.816,0l-0,44.313l105.994,0l-0,48.861l-163.341,0l0,0.041Z" style="fill-rule:nonzero;"/><path d="M957.362,438.06l0,181.841l-57.346,-0l0,-181.841l-79.137,-0l0,-49.224l215.979,0l-0,49.224l-79.496,-0Z" style="fill-rule:nonzero;"/><path d="M1262.42,619.861l-62.412,-0l-67.524,-173.671l-69.004,173.671l-60.261,-0l96.937,-231.025l66.448,0l95.816,231.025Z" style="fill-rule:nonzero;"/><path d="M1524.36,619.901l-0,-153.144l-67.166,153.144l-46.451,-0l-67.165,-151.212l-0,151.212l-54.432,-0l0,-231.024l74.788,-0l70.797,156.082l67.166,-156.082l78.778,-0l-0,231.024l-56.315,-0Z" style="fill-rule:nonzero;"/><rect x="1607.4" y="388.877" width="58.064" height="231.024" style="fill-rule:nonzero;"/><path d="M1855.17,619.861l-105.994,-151.857l0,151.857l-56.987,-0l-0,-231.025l69.676,0l96.578,140.466l0,-140.466l57.347,0l-0,231.025l-60.62,-0Z" style="fill-rule:nonzero;"/></g></svg>